HIERARCHY
ROOT Hips
{
	OFFSET 0.000000 97.420761 0.000000
	CHANNELS 6 Xposition Yposition Zposition Xrotation Yrotation Zrotation
	JOINT RightUpLeg
	{
		OFFSET -8.571318 0.002251 -0.000250
		CHANNELS 6 Xposition Yposition Zposition Xrotation Yrotation Zrotation
		JOINT RightLeg
		{
			OFFSET 0.000000 -44.326080 -0.000105
			CHANNELS 6 Xposition Yposition Zposition Xrotation Yrotation Zrotation
			JOINT RightFoot
			{
				OFFSET 0.000000 -43.324329 -0.000176
				CHANNELS 6 Xposition Yposition Zposition Xrotation Yrotation Zrotation
				JOINT RightToeBase
				{
					OFFSET 0.000000 -7.938133 18.050686
					CHANNELS 6 Xposition Yposition Zposition Xrotation Yrotation Zrotation
					End Site
					{
						OFFSET 0.000000 0.000000 19.719055
					}
				}
			}
		}
	}
	JOINT LeftUpLeg
	{
		OFFSET 8.571318 -0.000084 0.000009
		CHANNELS 6 Xposition Yposition Zposition Xrotation Yrotation Zrotation
		JOINT LeftLeg
		{
			OFFSET 0.000000 -44.326080 -0.000105
			CHANNELS 6 Xposition Yposition Zposition Xrotation Yrotation Zrotation
			JOINT LeftFoot
			{
				OFFSET 0.000000 -43.324329 -0.000176
				CHANNELS 6 Xposition Yposition Zposition Xrotation Yrotation Zrotation
				JOINT LeftToeBase
				{
					OFFSET 0.000000 -7.938133 18.050686
					CHANNELS 6 Xposition Yposition Zposition Xrotation Yrotation Zrotation
					End Site
					{
						OFFSET 0.000000 0.000000 19.719055
					}
				}
			}
		}
	}
	JOINT Spine
	{
		OFFSET 0.000000 10.422829 -1.158092
		CHANNELS 6 Xposition Yposition Zposition Xrotation Yrotation Zrotation
		JOINT Spine1
		{
			OFFSET 0.000000 11.587624 0.000000
			CHANNELS 3 Xrotation Yrotation Zrotation
			JOINT Spine2
			{
				OFFSET 0.000000 10.579559 -0.000443
				CHANNELS 6 Xposition Yposition Zposition Xrotation Yrotation Zrotation
				JOINT Spine3
				{
					OFFSET 0.000000 10.567749 -0.000444
					CHANNELS 6 Xposition Yposition Zposition Xrotation Yrotation Zrotation
					JOINT LeftShoulder
					{
						OFFSET 3.218383 8.290512 0.000000
						CHANNELS 6 Xposition Yposition Zposition Xrotation Yrotation Zrotation
						JOINT LeftArm
						{
							OFFSET 15.038529 0.000000 0.000000
							CHANNELS 3 Xrotation Yrotation Zrotation
							JOINT LeftForeArm
							{
								OFFSET 32.129166 0.000000 0.000000
								CHANNELS 3 Xrotation Yrotation Zrotation
								JOINT LeftHand
								{
									OFFSET 26.275406 0.000000 0.000000
									CHANNELS 3 Xrotation Yrotation Zrotation
									End Site
									{
										OFFSET 26.275406 0.000000 0.000000
									}
								}
							}
						}
					}
					JOINT RightShoulder
					{
						OFFSET -3.218383 8.290512 0.000000
						CHANNELS 6 Xposition Yposition Zposition Xrotation Yrotation Zrotation
						JOINT RightArm
						{
							OFFSET -15.038529 0.000000 0.000000
							CHANNELS 3 Xrotation Yrotation Zrotation
							JOINT RightForeArm
							{
								OFFSET -32.129166 0.000000 0.000000
								CHANNELS 3 Xrotation Yrotation Zrotation
								JOINT RightHand
								{
									OFFSET -26.275406 0.000000 0.000000
									CHANNELS 3 Xrotation Yrotation Zrotation
									End Site
									{
										OFFSET -26.275406 0.000000 0.000000
									}
								}
							}
						}
					}
					JOINT Neck
					{
						OFFSET 0.000000 14.789474 0.000000
						CHANNELS 6 Xposition Yposition Zposition Xrotation Yrotation Zrotation
						JOINT Head
						{
							OFFSET 0.000000 9.838806 0.000953
							CHANNELS 6 Xposition Yposition Zposition Xrotation Yrotation Zrotation
							End Site
							{
								OFFSET 0.000000 9.838806 0.000000
							}
						}
					}
				}
			}
		}
	}
}
MOTION
Frames: 6
Frame Time: 0.016667
-137.355179 8.047821 121.145454 -102.304131 -4.065005 20.742378 -8.571313 0.002268 -0.000250 -30.386904 -2.614087 -7.140975 0.000000 -44.326092 -0.000107 117.174381 -0.378837 -0.446845 0.000005 -43.324322 -0.000175 10.270532 5.321176 6.507927 -0.000002 -7.938137 18.050688 0.000000 0.000000 -0.000000 8.571317 -0.000064 0.000011 -32.632018 -2.841555 -2.411496 -0.000002 -44.326099 -0.000112 124.592855 0.379718 0.537384 -0.000002 -43.324326 -0.000180 -2.591784 -16.355089 -6.118669 0.000004 -7.938137 18.050688 -0.000001 -0.000000 -0.000000 0.000002 10.422843 -1.158091 2.969377 -1.910625 -1.257272 -4.501884 -0.778810 -0.653362 0.000013 10.579558 -0.000443 1.318548 -0.778742 -0.653442 -0.000005 10.567745 -0.000441 6.826553 -0.629598 -0.430013 3.218396 8.290496 -0.000004 -14.633132 1.196656 -3.309096 15.480958 -11.216098 -90.569101 235.060742 -168.694512 171.406889 10.911036 -2.093129 4.611003 -3.218366 8.290506 -0.000001 -17.137617 -2.079469 3.050981 16.647666 18.539205 73.506803 -130.059861 177.449203 192.108810 7.994740 8.123772 3.124347 0.000017 14.789469 -0.000000 4.249822 0.098008 -0.466724 0.000014 9.838807 0.000957 -28.134780 0.415612 -0.779937 
-137.371399 8.174965 121.131004 -102.420647 -4.131220 20.708090 -8.571316 0.002262 -0.000246 -30.198749 -2.647840 -7.143266 0.000000 -44.326080 -0.000105 117.147908 -0.349601 -0.463614 -0.000012 -43.324329 -0.000178 10.280251 5.274967 6.582725 0.000002 -7.938131 18.050690 -0.000000 0.000002 0.000000 8.571330 -0.000087 0.000013 -32.892719 -2.717025 -2.297670 0.000009 -44.326073 -0.000110 124.867155 0.404428 0.535810 0.000028 -43.324326 -0.000197 -2.282452 -16.221730 -6.193426 -0.000004 -7.938130 18.050678 -0.000002 -0.000001 -0.000000 0.000016 10.422840 -1.158090 3.002831 -1.884236 -1.252380 -4.487087 -0.767306 -0.649972 0.000000 10.579553 -0.000445 1.333343 -0.767239 -0.650051 0.000015 10.567755 -0.000443 6.837623 -0.620749 -0.428352 3.218369 8.290499 -0.000003 -14.587421 1.192027 -3.288173 15.557400 -11.158006 -90.596073 235.130082 -168.683939 171.474057 10.933014 -2.094856 4.613883 -3.218392 8.290517 -0.000005 -17.089922 -2.116576 3.024066 16.744407 18.572514 73.510539 -130.094272 177.399315 192.052407 8.028414 8.105743 3.062689 -0.000006 14.789469 -0.000002 4.276281 0.105531 -0.452502 -0.000012 9.838813 0.000956 -28.085729 0.421500 -0.750832 
-137.374146 8.257584 121.120422 -102.500615 -4.179415 20.688950 -8.571315 0.002253 -0.000248 -30.061674 -2.691729 -7.159819 0.000008 -44.326084 -0.000099 117.130313 -0.363430 -0.471190 -0.000019 -43.324326 -0.000177 10.300128 5.344850 6.503829 -0.000027 -7.938133 18.050671 -0.000000 -0.000001 0.000001 8.571340 -0.000089 0.000011 -33.078104 -2.587516 -2.200669 0.000010 -44.326069 -0.000096 125.192709 0.337397 0.493558 -0.000009 -43.324326 -0.000168 -2.179667 -16.230027 -6.178346 0.000006 -7.938132 18.050674 -0.000001 -0.000000 -0.000000 0.000015 10.422823 -1.158092 3.026935 -1.866694 -1.248175 -4.476430 -0.759703 -0.647304 0.000005 10.579555 -0.000444 1.344001 -0.759637 -0.647380 0.000002 10.567732 -0.000442 6.845604 -0.614868 -0.426938 3.218380 8.290538 -0.000002 -14.560903 1.196019 -3.277871 15.584941 -11.081731 -90.618469 235.160162 -168.704511 171.468607 10.937101 -2.090336 4.589812 -3.218391 8.290524 -0.000001 -17.054767 -2.138126 2.996670 16.795606 18.602618 73.509966 -130.135799 177.372390 192.033391 8.045730 8.104013 3.030388 -0.000005 14.789472 0.000000 4.284736 0.107355 -0.440581 -0.000027 9.838800 0.000960 -28.070126 0.418546 -0.728707 
-137.369110 8.328354 121.110023 -102.570330 -4.223953 20.674822 -8.571311 0.002233 -0.000247 -29.939731 -2.734239 -7.177620 -0.000013 -44.326069 -0.000113 117.114904 -0.397938 -0.475372 0.000024 -43.324326 -0.000197 10.323071 5.469333 6.345479 0.000011 -7.938132 18.050709 -0.000000 -0.000000 -0.000000 8.571314 -0.000103 0.000014 -33.233614 -2.446925 -2.102465 0.000003 -44.326096 -0.000096 125.559955 0.227853 0.432367 -0.000024 -43.324329 -0.000197 -2.166457 -16.288997 -6.121378 0.000005 -7.938132 18.050657 0.000001 0.000000 -0.000000 0.000010 10.422811 -1.158088 3.048205 -1.853281 -1.243039 -4.467027 -0.753982 -0.644423 0.000013 10.579546 -0.000443 1.353407 -0.753916 -0.644501 0.000005 10.567766 -0.000443 6.852642 -0.610376 -0.425226 3.218375 8.290500 -0.000004 -14.540436 1.207290 -3.273045 15.595364 -10.994241 -90.642457 235.168386 -168.741982 171.432680 10.928566 -2.081190 4.553953 -3.218390 8.290505 -0.000001 -17.021958 -2.151427 2.965669 16.831613 18.634682 73.505198 -130.184184 177.351626 192.030236 8.056687 8.108698 3.009652 -0.000006 14.789471 0.000000 4.285446 0.107503 -0.429524 -0.000012 9.838807 0.000955 -28.068874 0.413096 -0.708951 
-137.360199 8.397011 121.098503 -102.638953 -4.258237 20.660660 -8.571330 0.002256 -0.000250 -29.825524 -2.769554 -7.197693 0.000000 -44.326092 -0.000102 117.101599 -0.425336 -0.476908 0.000008 -43.324329 -0.000191 10.339833 5.598154 6.203699 -0.000003 -7.938131 18.050682 0.000000 -0.000001 -0.000000 8.571313 -0.000076 0.000010 -33.356458 -2.301023 -2.005306 0.000009 -44.326084 -0.000108 125.909524 0.143131 0.388838 -0.000007 -43.324333 -0.000192 -2.185780 -16.327333 -6.060003 -0.000010 -7.938129 18.050676 0.000000 -0.000000 -0.000000 -0.000009 10.422845 -1.158093 3.067324 -1.846853 -1.236183 -4.458572 -0.751440 -0.641138 -0.000004 10.579565 -0.000445 1.361860 -0.751374 -0.641212 -0.000008 10.567741 -0.000443 6.858975 -0.608228 -0.422970 3.218379 8.290505 -0.000002 -14.520998 1.222538 -3.272513 15.611473 -10.912325 -90.669054 235.163823 -168.780887 171.408064 10.895033 -2.066200 4.518175 -3.218379 8.290505 -0.000005 -16.989722 -2.159843 2.935892 16.871522 18.675052 73.491599 -130.247295 177.327530 192.028870 8.067475 8.112047 2.991664 -0.000008 14.789481 -0.000002 4.281412 0.108840 -0.419576 -0.000015 9.838810 0.000957 -28.076427 0.410360 -0.690542 
-137.348145 8.458984 121.086243 -102.700883 -4.269688 20.645230 -8.571300 0.002240 -0.000251 -29.733197 -2.789331 -7.219191 0.000006 -44.326088 -0.000110 117.091613 -0.431212 -0.475301 0.000006 -43.324326 -0.000195 10.344016 5.707843 6.137810 -0.000029 -7.938132 18.050684 0.000000 -0.000001 0.000001 8.571341 -0.000087 0.000014 -33.420443 -2.154686 -1.923591 0.000008 -44.326077 -0.000102 126.190655 0.125985 0.386284 -0.000011 -43.324329 -0.000173 -2.246268 -16.368649 -5.995187 0.000004 -7.938131 18.050692 -0.000001 0.000000 -0.000000 0.000014 10.422829 -1.158093 3.080540 -1.853789 -1.226813 -4.452729 -0.754946 -0.637404 0.000008 10.579560 -0.000444 1.367705 -0.754880 -0.637484 0.000024 10.567738 -0.000442 6.863363 -0.610564 -0.419938 3.218385 8.290503 -0.000005 -14.501444 1.240497 -3.277667 15.644045 -10.853174 -90.697693 235.141830 -168.810680 171.420481 10.821618 -2.041704 4.498109 -3.218377 8.290515 -0.000003 -16.961458 -2.160036 2.913177 16.922355 18.728867 73.464381 -130.332768 177.297231 192.024362 8.077321 8.108320 2.975617 -0.000007 14.789475 -0.000001 4.273601 0.112633 -0.412333 -0.000015 9.838810 0.000951 -28.090982 0.413410 -0.675668 
